#!OML:ASF H:\MichaelJackson\Top Level 1\Subject 1\Session 1\male.ASF
:FULLY-SPECIFIED
:DEGREES
554
root 3.41402 16.6742 -7.80247 7.90524 12.3332 5.53069
lowerback 3.77698 -2.52974 -4.70271
upperback 2.05942 -3.51863 -4.12487
thorax 0.0284869 -1.76612 -1.4828
lowerneck -5.66631 0.261907 3.30534
upperneck 3.46884 0.00946784 1.82645
head 2.05738 0.101608 0.0130995
rclavicle -3.57812e-015 9.54166e-015
rhumerus -58.2308 -16.1488 -75.9495
rradius 47.5757
rwrist 4.66101
rhand -29.7004 -25.8052
rfingers 7.12502
rthumb -3.02814 -415.763
lclavicle -3.57812e-015 9.54166e-015
lhumerus 5.53123 3.24952 39.0793
lradius 69.9165
lwrist 20.1986
lhand 6.43131 10.4904
lfingers 7.12502
lthumb 31.7342 37.7493
rfemur -35.3641 8.94413 8.66835
rtibia 47.6821
rfoot -11.0785 -9.16851
rtoes -11.1191
lfemur -22.3473 17.1504 -26.483
ltibia 51.5791
lfoot -20.1736 7.49266
ltoes -12.8476
555
root 3.40222 16.6928 -7.6687 7.71479 12.5801 5.0642
lowerback 3.66896 -2.39027 -4.50642
upperback 2.01572 -3.32141 -3.91325
thorax 0.0430341 -1.66757 -1.38381
lowerneck -5.67806 0.164984 3.30166
upperneck 3.56124 -0.124572 1.86994
head 2.08892 0.0377899 0.0228351
rclavicle -1.21259e-014 -3.10104e-014
rhumerus -58.2762 -16.2463 -75.922
rradius 47.6109
rwrist 4.3108
rhand -28.6485 -25.2579
rfingers 7.12502
rthumb -2.01225 -415.228
lclavicle -1.21259e-014 -3.10104e-014
lhumerus 4.78603 -0.341296 37.9868
lradius 69.3601
lwrist 21.1803
lhand 14.952 11.7489
lfingers 7.12502
lthumb 39.8064 37.0331
rfemur -34.046 8.30435 9.79112
rtibia 46.6887
rfoot -11.6245 -9.69904
rtoes -10.4498
lfemur -23.2968 17.7849 -25.7671
ltibia 53.835
lfoot -18.2428 7.20484
ltoes -14.177
556
root 3.38965 16.711 -7.5372 7.53364 12.7761 4.51181
lowerback 3.56663 -2.2198 -4.25003
upperback 1.95483 -3.08319 -3.67047
thorax 0.0346227 -1.54796 -1.28647
lowerneck -5.72179 0.0650306 3.27878
upperneck 3.69483 -0.263351 1.90461
head 2.13995 -0.0279098 0.0328119
rclavicle -3.49861e-014 2.22639e-014
rhumerus -58.2526 -16.2931 -75.9409
rradius 47.5615
rwrist 4.10086
rhand -27.734 -24.8486
rfingers 7.12502
rthumb -1.129 -414.825
lclavicle -3.49861e-014 2.22639e-014
lhumerus 4.10265 -4.09566 37.1604
lradius 69.0761
lwrist 23.3301
lhand 22.0956 14.5403
lfingers 7.12502
lthumb 46.4821 37.4314
rfemur -32.8207 7.63426 10.9572
rtibia 45.7112
rfoot -12.1167 -10.012
rtoes -9.76689
lfemur -24.4997 18.5562 -25.0065
ltibia 56.3018
lfoot -15.9219 6.87174
ltoes -14.9383
557
root 3.37686 16.7283 -7.40811 7.35361 12.9115 3.86156
lowerback 3.47087 -2.0208 -3.91575
upperback 1.87964 -2.80651 -3.39504
thorax 0.00537994 -1.4086 -1.19938
lowerneck -5.77598 -0.0322418 3.24692
upperneck 3.84027 -0.397483 1.91538
head 2.197 -0.0917982 0.0367809
rclavicle -4.65156e-014 -1.51076e-014
rhumerus -58.157 -16.2712 -76.0136
rradius 47.448
rwrist 4.02214
rhand -26.968 -24.5661
rfingers 7.12502
rthumb -0.389138 -414.545
lclavicle -4.65156e-014 -1.51076e-014
lhumerus 3.45131 -7.94167 36.602
lradius 69.0497
lwrist 26.269
lhand 27.1307 18.9521
lfingers 7.12502
lthumb 51.1099 39.572
rfemur -31.6936 6.98527 12.1552
rtibia 44.7658
rfoot -12.5628 -10.1074
rtoes -9.28275
lfemur -25.9335 19.4522 -24.1997
ltibia 58.9333
lfoot -13.2222 6.56769
ltoes -15.0221
558
root 3.36455 16.7444 -7.28148 7.1658 12.982 3.10875
lowerback 3.3853 -1.79858 -3.49155
upperback 1.7957 -2.49781 -3.08623
thorax -0.040646 -1.25281 -1.12871
lowerneck -5.84552 -0.12139 3.20352
upperneck 3.99176 -0.519193 1.89792
head 2.25911 -0.150316 0.0340431
rclavicle -1.47101e-014 2.22639e-014
rhumerus -57.9751 -16.1626 -76.1476
rradius 47.2853
rwrist 4.07009
rhand -26.3332 -24.3724
rfingers 7.12502
rthumb 0.223899 -414.352
lclavicle -1.47101e-014 2.22639e-014
lhumerus 2.79505 -11.7816 36.3211
lradius 69.2211
lwrist 29.4617
lhand 29.6897 24.4048
lfingers 7.12502
lthumb 53.4278 43.6225
rfemur -30.6549 6.39371 13.3782
rtibia 43.857
rfoot -12.9948 -9.98808
rtoes -8.93595
lfemur -27.5582 20.4649 -23.3548
ltibia 61.6659
lfoot -10.2058 6.37442
ltoes -14.2407
559
root 3.3533 16.7591 -7.15755 6.96095 13.0021 2.25975
lowerback 3.32583 -1.56278 -2.96752
upperback 1.70425 -2.17005 -2.75325
thorax -0.110661 -1.08705 -1.08906
lowerneck -5.91258 -0.202412 3.16603
upperneck 4.13293 -0.628156 1.84582
head 2.31747 -0.203701 0.0196041
rclavicle 3.4191e-014 -1.27222e-014
rhumerus -57.711 -15.9628 -76.3495
rradius 47.087
rwrist 4.24929
rhand -25.8078 -24.2213
rfingers 7.12502
rthumb 0.731374 -414.2
lclavicle 3.4191e-014 -1.27222e-014
lhumerus 2.08734 -15.5537 36.3092
lradius 69.5145
lwrist 32.3515
lhand 30.0509 29.9623
lfingers 7.12502
lthumb 53.7527 48.9662
rfemur -29.6808 5.85982 14.6241
rtibia 42.9807
rfoot -13.4301 -9.66326
rtoes -8.62079
lfemur -29.3266 21.5762 -22.4892
ltibia 64.4331
lfoot -6.98897 6.37527
ltoes -12.2122
560
root 3.34379 16.7734 -7.03561 6.73319 12.9874 1.34865
lowerback 3.29101 -1.33166 -2.38064
upperback 1.62026 -1.84708 -2.39546
thorax -0.185738 -0.9238 -1.05935
lowerneck -6.00226 -0.267163 3.12562
upperneck 4.26653 -0.713257 1.74933
head 2.37762 -0.246745 -0.00779573
rclavicle 1.61016e-014 -2.3059e-014
rhumerus -57.3382 -15.638 -76.6182
rradius 46.864
rwrist 4.5606
rhand -25.3544 -24.0618
rfingers 7.12502
rthumb 1.1693 -414.038
lclavicle 1.61016e-014 -2.3059e-014
lhumerus 1.27091 -19.1591 36.6024
lradius 69.8166
lwrist 34.4139
lhand 29.0114 34.6311
lfingers 7.12502
lthumb 52.816 54.2393
rfemur -28.7397 5.35875 15.8731
rtibia 42.129
rfoot -13.8755 -9.1564
rtoes -8.22275
lfemur -31.1794 22.7678 -21.651
ltibia 67.1642
lfoot -3.74808 6.68295
ltoes -8.48772
561
root 3.33618 16.7869 -6.91519 6.48211 12.9593 0.412086
lowerback 3.27957 -1.10974 -1.75437
upperback 1.54778 -1.53488 -2.03266
thorax -0.260397 -0.766167 -1.04693
lowerneck -6.10316 -0.321807 3.10261
upperneck 4.3894 -0.78397 1.61403
head 2.4363 -0.28385 -0.0502347
rclavicle -7.7526e-015 -1.03368e-014
rhumerus -56.8703 -15.2208 -76.9424
rradius 46.6324
rwrist 5.00154
rhand -24.9184 -23.9274
rfingers 7.12502
rthumb 1.59036 -413.901
lclavicle -7.7526e-015 -1.03368e-014
lhumerus 0.323149 -22.5812 37.2073
lradius 70.036
lwrist 35.3326
lhand 27.4745 37.9849
lfingers 7.12502
lthumb 51.4227 58.4273
rfemur -27.803 4.86883 17.1051
rtibia 41.2942
rfoot -14.3429 -8.52063
rtoes -7.59056
lfemur -33.0689 24.0128 -20.8864
ltibia 69.7999
lfoot -0.752344 7.37955
ltoes -2.95559
562
root 3.33046 16.7996 -6.79565 6.20853 12.9435 -0.505126
lowerback 3.30052 -0.906155 -1.12619
upperback 1.48333 -1.24654 -1.68141
thorax -0.342534 -0.620764 -1.04721
lowerneck -6.19657 -0.370596 3.10238
upperneck 4.49858 -0.845947 1.44719
head 2.48898 -0.317688 -0.106501
rclavicle -1.61016e-014 6.36111e-015
rhumerus -56.3309 -14.7248 -77.3103
rradius 46.4016
rwrist 5.56934
rhand -24.4751 -23.7969
rfingers 7.12502
rthumb 2.0185 -413.767
lclavicle -1.61016e-014 6.36111e-015
lhumerus -0.793796 -25.7988 38.1386
lradius 70.1005
lwrist 34.9366
lhand 26.1575 39.8179
lfingers 7.12502
lthumb 50.2217 60.9234
rfemur -26.844 4.38182 18.2906
rtibia 40.4723
rfoot -14.824 -7.85692
rtoes -6.79463
lfemur -34.9454 25.2618 -20.2436
ltibia 72.2804
lfoot 1.7224 8.45432
ltoes 4.00579
563
root 3.32632 16.8116 -6.67629 5.91971 12.9629 -1.3642
lowerback 3.34079 -0.732305 -0.543269
upperback 1.43454 -0.997721 -1.34692
thorax -0.416697 -0.495584 -1.0388
lowerneck -6.29554 -0.411709 3.11932
upperneck 4.59644 -0.897407 1.25743
head 2.53892 -0.347091 -0.172881
rclavicle -8.34896e-015 7.95139e-016
rhumerus -55.7129 -14.1623 -77.7024
rradius 46.1772
rwrist 6.25393
rhand -24.0094 -23.6535
rfingers 7.12502
rthumb 2.46824 -413.619
lclavicle -8.34896e-015 7.95139e-016
lhumerus -2.11171 -28.7521 39.4156
lradius 69.9722
lwrist 33.2149
lhand 25.4041 40.295
lfingers 7.12502
lthumb 49.5319 61.7601
rfemur -25.8531 3.90412 19.3992
rtibia 39.6668
rfoot -15.2902 -7.24251
rtoes -5.82242
lfemur -36.7774 26.4721 -19.7644
ltibia 74.5583
lfoot 3.47321 9.76368
ltoes 11.5971
564
root 3.32332 16.8231 -6.55644 5.62571 13.0354 -2.12696
lowerback 3.39532 -0.59226 -0.0450959
upperback 1.39921 -0.795142 -1.04243
thorax -0.483 -0.393925 -1.01262
lowerneck -6.4032 -0.44943 3.14973
upperneck 4.69145 -0.945138 1.0624
head 2.58958 -0.374773 -0.243427
rclavicle 2.18663e-015 3.10104e-014
rhumerus -55.0339 -13.5563 -78.1046
rradius 45.9603
rwrist 7.03139
rhand -23.5743 -23.363
rfingers 7.12502
rthumb 2.88849 -413.323
lclavicle 2.18663e-015 3.10104e-014
lhumerus -3.63027 -31.3963 41.0361
lradius 69.6265
lwrist 30.2971
lhand 25.2531 39.5169
lfingers 7.12502
lthumb 49.3935 61.0524
rfemur -24.8339 3.47549 20.3927
rtibia 38.8896
rfoot -15.7332 -6.74951
rtoes -4.7705
lfemur -38.5401 27.5942 -19.4822
ltibia 76.5885
lfoot 4.44383 11.0385
ltoes 18.7677
565
root 3.3208 16.8333 -6.43556 5.33487 13.1695 -2.77588
lowerback 3.45214 -0.484441 0.345733
upperback 1.3761 -0.637748 -0.777042
thorax -0.536914 -0.315148 -0.965169
lowerneck -6.50465 -0.48558 3.1922
upperneck 4.77158 -0.99182 0.880949
head 2.63417 -0.401686 -0.311847
rclavicle -2.08724e-015 4.45278e-014
rhumerus -54.3061 -12.9382 -78.5118
rradius 45.7681
rwrist 7.8603
rhand -23.1375 -23.1281
rfingers 7.12502
rthumb 3.31033 -413.082
lclavicle -2.08724e-015 4.45278e-014
lhumerus -5.33968 -33.6941 42.9738
lradius 69.0767
lwrist 26.4017
lhand 25.5713 37.6866
lfingers 7.12502
lthumb 49.6851 59.0731
rfemur -23.799 3.16223 21.2519
rtibia 38.1595
rfoot -16.1527 -6.46661
rtoes -3.70089
lfemur -40.2192 28.5915 -19.4047
ltibia 78.3331
lfoot 4.75693 11.9893
ltoes 24.4998
